<svg preserveAspectRatio="none" width="100%" height="100%" overflow="visible" style="display: block;" viewBox="0 0 56 57" fill="none" xmlns="http://www.w3.org/2000/svg">
<g id="Frame 2147227141">
<rect id="Rectangle 438" x="56" width="57" height="56" rx="12" transform="rotate(90 56 0)" fill="var(--fill-0, #4E5269)"/>
<path id="Vector" d="M27.9999 30.8323L35.7878 38.6199C36.2944 39.1267 37.1135 39.1267 37.6201 38.6199C38.1266 38.1133 38.1266 37.2943 37.6201 36.7877L29.8321 28.9999L37.6201 21.2123C38.1266 20.7055 38.1266 19.8867 37.6201 19.3801C37.1135 18.8733 36.2944 18.8733 35.7878 19.3801L27.9999 27.1677L20.2119 19.3801C19.7053 18.8733 18.8862 18.8733 18.3796 19.3801C18.1269 19.6326 18 19.9645 18 20.2962C18 20.6279 18.1269 20.9596 18.3796 21.2123L26.1676 28.9999L18.3796 36.7877C18.1269 37.0404 18 37.3721 18 37.7038C18 38.0355 18.1269 38.3672 18.3796 38.6199C18.8862 39.1267 19.7053 39.1267 20.2119 38.6199L27.9999 30.8323Z" fill="var(--fill-0, white)"/>
</g>
</svg>
