<svg preserveAspectRatio="none" width="100%" height="100%" overflow="visible" style="display: block;" viewBox="0 0 21 21" fill="none" xmlns="http://www.w3.org/2000/svg">
<g id="SVG">
<path id="Vector" d="M7.5 2.5H4.5C3.39543 2.5 2.5 3.39543 2.5 4.5V7.5C2.5 8.60457 3.39543 9.5 4.5 9.5H7.5C8.60457 9.5 9.5 8.60457 9.5 7.5V4.5C9.5 3.39543 8.60457 2.5 7.5 2.5Z" stroke="var(--stroke-0, #0E184D)" stroke-width="1.7"/>
<path id="Vector_2" d="M16.5 2.5H13.5C12.3954 2.5 11.5 3.39543 11.5 4.5V7.5C11.5 8.60457 12.3954 9.5 13.5 9.5H16.5C17.6046 9.5 18.5 8.60457 18.5 7.5V4.5C18.5 3.39543 17.6046 2.5 16.5 2.5Z" stroke="var(--stroke-0, #0E184D)" stroke-width="1.7"/>
<path id="Vector_3" d="M7.5 11.5H4.5C3.39543 11.5 2.5 12.3954 2.5 13.5V16.5C2.5 17.6046 3.39543 18.5 4.5 18.5H7.5C8.60457 18.5 9.5 17.6046 9.5 16.5V13.5C9.5 12.3954 8.60457 11.5 7.5 11.5Z" stroke="var(--stroke-0, #0E184D)" stroke-width="1.7"/>
<path id="Vector_4" d="M16.5 11.5H13.5C12.3954 11.5 11.5 12.3954 11.5 13.5V16.5C11.5 17.6046 12.3954 18.5 13.5 18.5H16.5C17.6046 18.5 18.5 17.6046 18.5 16.5V13.5C18.5 12.3954 17.6046 11.5 16.5 11.5Z" stroke="var(--stroke-0, #0E184D)" stroke-width="1.7"/>
</g>
</svg>
