<svg preserveAspectRatio="none" width="100%" height="100%" overflow="visible" style="display: block;" viewBox="0 0 26.1342 26.1342" fill="none" xmlns="http://www.w3.org/2000/svg">
<g id="Group">
<path id="Vector" d="M13.067 0C5.8503 0 0 5.8503 0 13.067C0 20.2837 5.8503 26.134 13.067 26.134C20.2837 26.134 26.134 20.2837 26.134 13.067C26.1263 5.85353 20.2805 0.00771115 13.067 0ZM18.57 13.4833C18.4796 13.6648 18.3325 13.8119 18.151 13.9024V13.907L10.6841 17.6405C10.223 17.8709 9.66245 17.6839 9.43199 17.2228C9.36647 17.0917 9.33273 16.947 9.33355 16.8005V9.3336C9.33333 8.81811 9.75099 8.40006 10.2665 8.39979C10.4115 8.39973 10.5545 8.43342 10.6841 8.49823L18.151 12.2317C18.6124 12.4616 18.8 13.022 18.57 13.4833Z" fill="var(--fill-0, #0E184D)"/>
</g>
</svg>
