<svg width="430" height="64" viewBox="0 0 430 64" fill="none" xmlns="http://www.w3.org/2000/svg">
<path d="M67.6516 46V38.7273H72.467V39.995H69.1893V41.728H72.1474V42.9957H69.1893V46H67.6516ZM73.8012 46V38.7273H76.6706C77.2198 38.7273 77.6886 38.8255 78.0768 39.022C78.4674 39.2161 78.7645 39.492 78.9681 39.8494C79.1741 40.2045 79.2771 40.6224 79.2771 41.103C79.2771 41.5859 79.1729 42.0014 78.9646 42.3494C78.7563 42.6951 78.4544 42.9602 78.0591 43.1449C77.6661 43.3295 77.1902 43.4219 76.6315 43.4219H74.7103V42.1861H76.3829C76.6765 42.1861 76.9203 42.1458 77.1145 42.0653C77.3086 41.9848 77.453 41.8641 77.5477 41.7031C77.6448 41.5421 77.6933 41.3421 77.6933 41.103C77.6933 40.8615 77.6448 40.6579 77.5477 40.4922C77.453 40.3265 77.3074 40.201 77.1109 40.1158C76.9168 40.0282 76.6717 39.9844 76.3758 39.9844H75.3389V46H73.8012ZM77.7288 42.6903L79.5363 46H77.8389L76.0704 42.6903H77.7288ZM87.347 42.3636C87.347 43.1567 87.1967 43.8314 86.896 44.3878C86.5977 44.9441 86.1905 45.3691 85.6744 45.6626C85.1607 45.9538 84.583 46.0994 83.9414 46.0994C83.2951 46.0994 82.7151 45.9527 82.2014 45.6591C81.6877 45.3655 81.2816 44.9406 80.9833 44.3842C80.6851 43.8279 80.5359 43.1544 80.5359 42.3636C80.5359 41.5705 80.6851 40.8958 80.9833 40.3395C81.2816 39.7831 81.6877 39.3594 82.2014 39.0682C82.7151 38.7746 83.2951 38.6278 83.9414 38.6278C84.583 38.6278 85.1607 38.7746 85.6744 39.0682C86.1905 39.3594 86.5977 39.7831 86.896 40.3395C87.1967 40.8958 87.347 41.5705 87.347 42.3636ZM85.788 42.3636C85.788 41.8499 85.7111 41.4167 85.5572 41.0639C85.4057 40.7112 85.1914 40.4437 84.9145 40.2614C84.6375 40.0791 84.3131 39.9879 83.9414 39.9879C83.5698 39.9879 83.2454 40.0791 82.9684 40.2614C82.6914 40.4437 82.476 40.7112 82.3221 41.0639C82.1706 41.4167 82.0949 41.8499 82.0949 42.3636C82.0949 42.8774 82.1706 43.3106 82.3221 43.6634C82.476 44.0161 82.6914 44.2836 82.9684 44.4659C83.2454 44.6482 83.5698 44.7393 83.9414 44.7393C84.3131 44.7393 84.6375 44.6482 84.9145 44.4659C85.1914 44.2836 85.4057 44.0161 85.5572 43.6634C85.7111 43.3106 85.788 42.8774 85.788 42.3636ZM94.8691 38.7273V46H93.541L90.3769 41.4226H90.3237V46H88.786V38.7273H90.1354L93.2746 43.3011H93.3386V38.7273H94.8691ZM96.1625 39.995V38.7273H102.136V39.995H99.909V46H98.3891V39.995H96.1625Z" fill="white"/>
<rect opacity="0.4" x="99" y="18" width="102" height="2" fill="#1A2260"/>
<rect x="72" y="5" width="26" height="26" rx="13" fill="#0E184D"/>
<rect x="72" y="5" width="26" height="26" rx="13" stroke="#0E184D" stroke-width="2"/>
<path d="M81 18L84 21L89 16" stroke="white" stroke-width="2" stroke-linecap="round" stroke-linejoin="round"/>
<rect x="72" y="5" width="26" height="26" rx="13" fill="white"/>
<rect x="72" y="5" width="26" height="26" rx="13" stroke="#1A2260" stroke-width="2"/>
<g filter="url(#filter0_d_161_304)">
<rect x="71" y="4" width="28" height="28" rx="14" fill="white" fill-opacity="0.01" shape-rendering="crispEdges"/>
<rect x="71.5" y="4.5" width="27" height="27" rx="13.5" stroke="#0E184D" shape-rendering="crispEdges"/>
</g>
<path d="M82.0474 22V20.691H84.4674V15.521H82.5534V14.509C83.0668 14.4137 83.5104 14.3293 83.8844 14.256C84.2584 14.1753 84.5958 14.0323 84.8964 13.827H86.0844V20.691H88.2844V22H82.0474Z" fill="#1A2260"/>
<path d="M188.712 46V38.7273H190.25V44.7322H193.368V46H188.712ZM194.686 46V38.7273H199.587V39.995H196.224V41.728H199.334V42.9957H196.224V44.7322H199.601V46H194.686ZM201.109 46V38.7273H205.924V39.995H202.647V41.728H205.605V42.9957H202.647V46H201.109ZM206.982 39.995V38.7273H212.955V39.995H210.728V46H209.208V39.995H206.982ZM220.798 40.8189C220.77 40.5324 220.648 40.3099 220.432 40.1513C220.217 39.9927 219.925 39.9134 219.555 39.9134C219.304 39.9134 219.092 39.9489 218.92 40.0199C218.747 40.0885 218.614 40.1844 218.522 40.3075C218.432 40.4306 218.387 40.5703 218.387 40.7266C218.382 40.8568 218.409 40.9704 218.469 41.0675C218.53 41.1645 218.614 41.2486 218.721 41.3196C218.827 41.3883 218.95 41.4486 219.09 41.5007C219.23 41.5504 219.379 41.593 219.537 41.6286L220.191 41.7848C220.508 41.8558 220.799 41.9505 221.064 42.0689C221.33 42.1873 221.559 42.3329 221.753 42.5057C221.948 42.6785 222.098 42.8821 222.204 43.1165C222.313 43.3509 222.369 43.6196 222.371 43.9226C222.369 44.3677 222.255 44.7536 222.03 45.0803C221.808 45.4046 221.486 45.6567 221.064 45.8366C220.645 46.0142 220.14 46.103 219.548 46.103C218.961 46.103 218.45 46.013 218.014 45.8331C217.581 45.6532 217.242 45.3868 216.998 45.0341C216.757 44.679 216.63 44.2398 216.618 43.7166H218.106C218.123 43.9605 218.193 44.1641 218.316 44.3274C218.441 44.4884 218.608 44.6103 218.817 44.6932C219.027 44.7737 219.265 44.8139 219.53 44.8139C219.791 44.8139 220.017 44.776 220.209 44.7003C220.403 44.6245 220.553 44.5192 220.66 44.3842C220.766 44.2493 220.819 44.0942 220.819 43.919C220.819 43.7557 220.771 43.6184 220.674 43.5071C220.579 43.3958 220.439 43.3011 220.255 43.223C220.073 43.1449 219.849 43.0739 219.584 43.0099L218.792 42.8111C218.179 42.6619 217.694 42.4287 217.339 42.1115C216.984 41.7943 216.808 41.367 216.81 40.8295C216.808 40.3892 216.925 40.0045 217.162 39.6754C217.401 39.3464 217.729 39.0895 218.145 38.9048C218.562 38.7202 219.036 38.6278 219.566 38.6278C220.106 38.6278 220.577 38.7202 220.979 38.9048C221.384 39.0895 221.699 39.3464 221.924 39.6754C222.149 40.0045 222.265 40.3857 222.272 40.8189H220.798ZM225.243 38.7273V46H223.706V38.7273H225.243ZM229.386 46H226.808V38.7273H229.408C230.139 38.7273 230.769 38.8729 231.297 39.1641C231.825 39.4529 232.231 39.8684 232.515 40.4105C232.801 40.9527 232.945 41.6013 232.945 42.3565C232.945 43.1141 232.801 43.7652 232.515 44.3097C232.231 44.8542 231.822 45.272 231.29 45.5632C230.76 45.8544 230.125 46 229.386 46ZM228.346 44.6825H229.322C229.777 44.6825 230.159 44.602 230.469 44.4411C230.782 44.2777 231.016 44.0256 231.173 43.6847C231.331 43.3414 231.411 42.8987 231.411 42.3565C231.411 41.8191 231.331 41.38 231.173 41.0391C231.016 40.6982 230.783 40.4472 230.473 40.2862C230.163 40.1252 229.781 40.0447 229.326 40.0447H228.346V44.6825ZM234.384 46V38.7273H239.284V39.995H235.921V41.728H239.032V42.9957H235.921V44.7322H239.298V46H234.384Z" fill="white"/>
<rect opacity="0.4" x="229" y="18" width="102" height="2" fill="#1A2260"/>
<rect x="202" y="5" width="26" height="26" rx="13" fill="#0E184D"/>
<rect x="202" y="5" width="26" height="26" rx="13" stroke="#0E184D" stroke-width="2"/>
<path d="M211 18L214 21L219 16" stroke="white" stroke-width="2" stroke-linecap="round" stroke-linejoin="round"/>
<rect x="202" y="5" width="26" height="26" rx="13" fill="#0E184D"/>
<rect x="202" y="5" width="26" height="26" rx="13" stroke="#0E184D" stroke-width="2"/>
<path d="M211 18L214 21L219 16" stroke="white" stroke-width="2" stroke-linecap="round" stroke-linejoin="round"/>
<rect x="202" y="5" width="26" height="26" rx="13" fill="white"/>
<rect x="202" y="5" width="26" height="26" rx="13" stroke="#1A2260" stroke-width="2"/>
<g filter="url(#filter1_d_161_304)">
<rect x="201" y="4" width="28" height="28" rx="14" fill="white" fill-opacity="0.01" shape-rendering="crispEdges"/>
<rect x="201.5" y="4.5" width="27" height="27" rx="13.5" stroke="#0E184D" shape-rendering="crispEdges"/>
</g>
<path d="M212.29 22V20.7812L215.137 18.1445C215.379 17.9102 215.582 17.6992 215.747 17.5117C215.913 17.3242 216.04 17.1406 216.125 16.9609C216.211 16.7786 216.254 16.582 216.254 16.3711C216.254 16.1367 216.201 15.9349 216.094 15.7656C215.987 15.5937 215.842 15.4622 215.657 15.3711C215.472 15.2773 215.262 15.2305 215.028 15.2305C214.783 15.2305 214.569 15.2799 214.387 15.3789C214.205 15.4779 214.064 15.6198 213.965 15.8047C213.866 15.9896 213.817 16.2096 213.817 16.4648H212.211C212.211 15.9414 212.33 15.487 212.567 15.1016C212.804 14.7161 213.136 14.418 213.563 14.207C213.99 13.9961 214.482 13.8906 215.04 13.8906C215.612 13.8906 216.111 13.9922 216.536 14.1953C216.963 14.3958 217.295 14.6745 217.532 15.0312C217.769 15.388 217.887 15.7969 217.887 16.2578C217.887 16.5599 217.827 16.8581 217.707 17.1523C217.59 17.4466 217.381 17.7734 217.079 18.1328C216.776 18.4896 216.351 18.918 215.801 19.418L214.633 20.5625V20.6172H217.993V22H212.29Z" fill="#1A2260"/>
<rect x="332" y="5" width="26" height="26" rx="13" fill="#0E184D"/>
<rect x="332" y="5" width="26" height="26" rx="13" stroke="#0E184D" stroke-width="2"/>
<path d="M341 18L344 21L349 16" stroke="white" stroke-width="2" stroke-linecap="round" stroke-linejoin="round"/>
<rect x="332" y="5" width="26" height="26" rx="13" fill="#0E184D"/>
<rect x="332" y="5" width="26" height="26" rx="13" stroke="#0E184D" stroke-width="2"/>
<path d="M341 18L344 21L349 16" stroke="white" stroke-width="2" stroke-linecap="round" stroke-linejoin="round"/>
<rect x="332" y="5" width="26" height="26" rx="13" fill="#0E184D"/>
<rect x="332" y="5" width="26" height="26" rx="13" stroke="#0E184D" stroke-width="2"/>
<path d="M341 18L344 21L349 16" stroke="white" stroke-width="2" stroke-linecap="round" stroke-linejoin="round"/>
<rect x="332" y="5" width="26" height="26" rx="13" fill="white"/>
<rect x="332" y="5" width="26" height="26" rx="13" stroke="#1A2260" stroke-width="2"/>
<g filter="url(#filter2_d_161_304)">
<rect x="331" y="4" width="28" height="28" rx="14" fill="white" fill-opacity="0.01" shape-rendering="crispEdges"/>
<rect x="331.5" y="4.5" width="27" height="27" rx="13.5" stroke="#0E184D" shape-rendering="crispEdges"/>
</g>
<path d="M345.085 22.1094C344.502 22.1094 343.983 22.0091 343.527 21.8086C343.074 21.6055 342.716 21.3268 342.453 20.9727C342.192 20.6159 342.058 20.2044 342.05 19.7383H343.753C343.764 19.9336 343.828 20.1055 343.945 20.2539C344.065 20.3997 344.223 20.513 344.421 20.5938C344.619 20.6745 344.842 20.7148 345.089 20.7148C345.347 20.7148 345.575 20.6693 345.773 20.5781C345.971 20.487 346.126 20.3607 346.238 20.1992C346.35 20.0378 346.406 19.8516 346.406 19.6406C346.406 19.4271 346.346 19.2383 346.226 19.0742C346.109 18.9076 345.94 18.7773 345.718 18.6836C345.499 18.5898 345.239 18.543 344.937 18.543H344.191V17.3008H344.937C345.192 17.3008 345.417 17.2565 345.613 17.168C345.811 17.0794 345.964 16.957 346.074 16.8008C346.183 16.6419 346.238 16.457 346.238 16.2461C346.238 16.0456 346.19 15.8698 346.093 15.7187C345.999 15.5651 345.867 15.4453 345.695 15.3594C345.526 15.2734 345.328 15.2305 345.101 15.2305C344.872 15.2305 344.662 15.2721 344.472 15.3555C344.282 15.4362 344.13 15.5521 344.015 15.7031C343.901 15.8542 343.839 16.0312 343.832 16.2344H342.21C342.218 15.7734 342.35 15.3672 342.605 15.0156C342.86 14.6641 343.204 14.3893 343.636 14.1914C344.071 13.9909 344.562 13.8906 345.109 13.8906C345.661 13.8906 346.144 13.9909 346.558 14.1914C346.972 14.3919 347.294 14.6628 347.523 15.0039C347.755 15.3424 347.869 15.7227 347.867 16.1445C347.869 16.5924 347.73 16.9661 347.449 17.2656C347.17 17.5651 346.807 17.7552 346.359 17.8359V17.8984C346.947 17.974 347.395 18.1784 347.703 18.5117C348.012 18.8424 348.166 19.2565 348.164 19.7539C348.166 20.2096 348.035 20.6146 347.769 20.9688C347.506 21.3229 347.143 21.6016 346.679 21.8047C346.216 22.0078 345.684 22.1094 345.085 22.1094Z" fill="#1A2260"/>
<path d="M315.512 46V38.7273H318.381C318.931 38.7273 319.399 38.8255 319.788 39.022C320.178 39.2161 320.475 39.492 320.679 39.8494C320.885 40.2045 320.988 40.6224 320.988 41.103C320.988 41.5859 320.884 42.0014 320.675 42.3494C320.467 42.6951 320.165 42.9602 319.77 43.1449C319.377 43.3295 318.901 43.4219 318.342 43.4219H316.421V42.1861H318.094C318.387 42.1861 318.631 42.1458 318.825 42.0653C319.019 41.9848 319.164 41.8641 319.258 41.7031C319.355 41.5421 319.404 41.3421 319.404 41.103C319.404 40.8615 319.355 40.6579 319.258 40.4922C319.164 40.3265 319.018 40.201 318.822 40.1158C318.628 40.0282 318.382 39.9844 318.087 39.9844H317.05V46H315.512ZM319.44 42.6903L321.247 46H319.55L317.781 42.6903H319.44ZM323.912 38.7273V46H322.374V38.7273H323.912ZM330.3 41.0781C330.25 40.9053 330.18 40.7526 330.09 40.62C330 40.4851 329.89 40.3714 329.76 40.2791C329.632 40.1844 329.485 40.1122 329.32 40.0625C329.156 40.0128 328.975 39.9879 328.776 39.9879C328.405 39.9879 328.078 40.0803 327.796 40.2649C327.517 40.4496 327.299 40.7183 327.143 41.071C326.986 41.4214 326.908 41.8499 326.908 42.3565C326.908 42.8632 326.985 43.294 327.139 43.6491C327.293 44.0043 327.511 44.2753 327.793 44.4624C328.074 44.647 328.407 44.7393 328.79 44.7393C329.138 44.7393 329.436 44.6778 329.682 44.5547C329.93 44.4292 330.12 44.2528 330.25 44.0256C330.383 43.7983 330.449 43.5296 330.449 43.2195L330.761 43.2656H328.886V42.108H331.93V43.0241C331.93 43.6634 331.795 44.2126 331.525 44.6719C331.255 45.1288 330.883 45.4815 330.41 45.7301C329.936 45.9763 329.394 46.0994 328.783 46.0994C328.102 46.0994 327.503 45.9491 326.986 45.6484C326.47 45.3454 326.068 44.9157 325.779 44.3594C325.493 43.8007 325.349 43.1378 325.349 42.3707C325.349 41.7812 325.435 41.2557 325.605 40.794C325.778 40.33 326.019 39.937 326.329 39.6151C326.64 39.2931 327.001 39.0481 327.413 38.88C327.825 38.7119 328.271 38.6278 328.751 38.6278C329.163 38.6278 329.547 38.6882 329.902 38.8089C330.257 38.9273 330.572 39.0954 330.847 39.3132C331.124 39.531 331.35 39.7902 331.525 40.0909C331.7 40.3892 331.812 40.7183 331.862 41.0781H330.3ZM333.385 46V38.7273H334.922V41.728H338.044V38.7273H339.578V46H338.044V42.9957H334.922V46H333.385ZM340.869 39.995V38.7273H346.842V39.995H344.615V46H343.095V39.995H340.869ZM354.685 40.8189C354.657 40.5324 354.535 40.3099 354.319 40.1513C354.104 39.9927 353.811 39.9134 353.442 39.9134C353.191 39.9134 352.979 39.9489 352.806 40.0199C352.634 40.0885 352.501 40.1844 352.409 40.3075C352.319 40.4306 352.274 40.5703 352.274 40.7266C352.269 40.8568 352.296 40.9704 352.355 41.0675C352.417 41.1645 352.501 41.2486 352.608 41.3196C352.714 41.3883 352.837 41.4486 352.977 41.5007C353.117 41.5504 353.266 41.593 353.424 41.6286L354.078 41.7848C354.395 41.8558 354.686 41.9505 354.951 42.0689C355.217 42.1873 355.446 42.3329 355.64 42.5057C355.834 42.6785 355.985 42.8821 356.091 43.1165C356.2 43.3509 356.256 43.6196 356.258 43.9226C356.256 44.3677 356.142 44.7536 355.917 45.0803C355.695 45.4046 355.373 45.6567 354.951 45.8366C354.532 46.0142 354.027 46.103 353.435 46.103C352.848 46.103 352.337 46.013 351.901 45.8331C351.468 45.6532 351.129 45.3868 350.885 45.0341C350.644 44.679 350.517 44.2398 350.505 43.7166H351.993C352.01 43.9605 352.08 44.1641 352.203 44.3274C352.328 44.4884 352.495 44.6103 352.703 44.6932C352.914 44.7737 353.152 44.8139 353.417 44.8139C353.678 44.8139 353.904 44.776 354.096 44.7003C354.29 44.6245 354.44 44.5192 354.547 44.3842C354.653 44.2493 354.706 44.0942 354.706 43.919C354.706 43.7557 354.658 43.6184 354.561 43.5071C354.466 43.3958 354.326 43.3011 354.142 43.223C353.959 43.1449 353.736 43.0739 353.471 43.0099L352.679 42.8111C352.065 42.6619 351.581 42.4287 351.226 42.1115C350.871 41.7943 350.695 41.367 350.697 40.8295C350.695 40.3892 350.812 40.0045 351.049 39.6754C351.288 39.3464 351.616 39.0895 352.032 38.9048C352.449 38.7202 352.922 38.6278 353.453 38.6278C353.993 38.6278 354.464 38.7202 354.866 38.9048C355.271 39.0895 355.586 39.3464 355.811 39.6754C356.036 40.0045 356.152 40.3857 356.159 40.8189H354.685ZM359.13 38.7273V46H357.592V38.7273H359.13ZM363.273 46H360.695V38.7273H363.295C364.026 38.7273 364.656 38.8729 365.184 39.1641C365.712 39.4529 366.118 39.8684 366.402 40.4105C366.688 40.9527 366.832 41.6013 366.832 42.3565C366.832 43.1141 366.688 43.7652 366.402 44.3097C366.118 44.8542 365.709 45.272 365.177 45.5632C364.646 45.8544 364.012 46 363.273 46ZM362.233 44.6825H363.209C363.664 44.6825 364.046 44.602 364.356 44.4411C364.669 44.2777 364.903 44.0256 365.06 43.6847C365.218 43.3414 365.297 42.8987 365.297 42.3565C365.297 41.8191 365.218 41.38 365.06 41.0391C364.903 40.6982 364.67 40.4472 364.36 40.2862C364.05 40.1252 363.667 40.0447 363.213 40.0447H362.233V44.6825ZM368.271 46V38.7273H373.171V39.995H369.808V41.728H372.919V42.9957H369.808V44.7322H373.185V46H368.271Z" fill="white"/>
<defs>
<filter id="filter0_d_161_304" x="67" y="0" width="36" height="36" filterUnits="userSpaceOnUse" color-interpolation-filters="sRGB">
<feFlood flood-opacity="0" result="BackgroundImageFix"/>
<feColorMatrix in="SourceAlpha" type="matrix" values="0 0 0 0 0 0 0 0 0 0 0 0 0 0 0 0 0 0 127 0" result="hardAlpha"/>
<feMorphology radius="4" operator="dilate" in="SourceAlpha" result="effect1_dropShadow_161_304"/>
<feOffset/>
<feComposite in2="hardAlpha" operator="out"/>
<feColorMatrix type="matrix" values="0 0 0 0 0.101961 0 0 0 0 0.133333 0 0 0 0 0.376471 0 0 0 0.12 0"/>
<feBlend mode="normal" in2="BackgroundImageFix" result="effect1_dropShadow_161_304"/>
<feBlend mode="normal" in="SourceGraphic" in2="effect1_dropShadow_161_304" result="shape"/>
</filter>
<filter id="filter1_d_161_304" x="197" y="0" width="36" height="36" filterUnits="userSpaceOnUse" color-interpolation-filters="sRGB">
<feFlood flood-opacity="0" result="BackgroundImageFix"/>
<feColorMatrix in="SourceAlpha" type="matrix" values="0 0 0 0 0 0 0 0 0 0 0 0 0 0 0 0 0 0 127 0" result="hardAlpha"/>
<feMorphology radius="4" operator="dilate" in="SourceAlpha" result="effect1_dropShadow_161_304"/>
<feOffset/>
<feComposite in2="hardAlpha" operator="out"/>
<feColorMatrix type="matrix" values="0 0 0 0 0.101961 0 0 0 0 0.133333 0 0 0 0 0.376471 0 0 0 0.12 0"/>
<feBlend mode="normal" in2="BackgroundImageFix" result="effect1_dropShadow_161_304"/>
<feBlend mode="normal" in="SourceGraphic" in2="effect1_dropShadow_161_304" result="shape"/>
</filter>
<filter id="filter2_d_161_304" x="327" y="0" width="36" height="36" filterUnits="userSpaceOnUse" color-interpolation-filters="sRGB">
<feFlood flood-opacity="0" result="BackgroundImageFix"/>
<feColorMatrix in="SourceAlpha" type="matrix" values="0 0 0 0 0 0 0 0 0 0 0 0 0 0 0 0 0 0 127 0" result="hardAlpha"/>
<feMorphology radius="4" operator="dilate" in="SourceAlpha" result="effect1_dropShadow_161_304"/>
<feOffset/>
<feComposite in2="hardAlpha" operator="out"/>
<feColorMatrix type="matrix" values="0 0 0 0 0.101961 0 0 0 0 0.133333 0 0 0 0 0.376471 0 0 0 0.12 0"/>
<feBlend mode="normal" in2="BackgroundImageFix" result="effect1_dropShadow_161_304"/>
<feBlend mode="normal" in="SourceGraphic" in2="effect1_dropShadow_161_304" result="shape"/>
</filter>
</defs>
</svg>
