<svg preserveAspectRatio="none" width="100%" height="100%" overflow="visible" style="display: block;" viewBox="0 0 56 57" fill="none" xmlns="http://www.w3.org/2000/svg">
<g id="Group 253">
<rect id="Rectangle 440" x="56" width="57" height="56" rx="12" transform="rotate(90 56 0)" fill="var(--fill-0, #4E5269)"/>
<path id="Vector" d="M13.0688 26.2844C12.9048 26.6456 13.0417 27.0656 13.3957 27.2766L29.5949 36.8765C29.8571 37.032 30.1882 37.0413 30.4586 36.9007C30.7299 36.7601 30.8984 36.4913 30.8984 36.1999V29.793L40.9413 32.1757C41.347 32.2719 41.766 32.0773 41.9311 31.7156C42.0954 31.3562 41.9577 30.9336 41.6043 30.7234L25.405 21.1235C25.1429 20.968 24.8118 20.9587 24.5413 21.0993C24.27 21.2399 24.1016 21.5087 24.1016 21.8001V28.207L14.0587 25.8242C13.6529 25.7281 13.2339 25.9226 13.0688 26.2844Z" fill="var(--fill-0, white)"/>
</g>
</svg>
