<svg preserveAspectRatio="none" width="100%" height="100%" overflow="visible" style="display: block;" viewBox="0 0 25.4789 25.4866" fill="none" xmlns="http://www.w3.org/2000/svg">
<g id="Layer 52">
<path id="Vector" d="M19.86 0H5.63495C4.14158 0 2.70938 0.593238 1.65341 1.64921C0.597438 2.70518 0.0041992 4.13738 0.0041992 5.63075V19.8558C-0.00139902 19.8752 -0.00139902 19.8957 0.0041992 19.9151C0.0198114 21.3982 0.619935 22.8152 1.67422 23.8584C2.7285 24.9016 4.1518 25.4867 5.63495 25.4866H19.86C21.3371 25.4836 22.7538 24.9004 23.8049 23.8626C24.8559 22.8249 25.4571 21.4157 25.4789 19.9388V5.63075C25.4789 4.13944 24.8873 2.70903 23.8339 1.65339C22.7805 0.597764 21.3513 0.00313961 19.86 0ZM23.7126 17.485L18.7576 11.8187C18.4427 11.4835 18.0626 11.2164 17.6406 11.0338C17.2185 10.8512 16.7636 10.757 16.3037 10.757C15.8439 10.757 15.389 10.8512 14.9669 11.0338C14.5449 11.2164 14.1648 11.4835 13.8499 11.8187L10.4478 15.7068L9.33347 14.3555C9.02642 13.9871 8.64215 13.6908 8.20787 13.4874C7.77359 13.2841 7.29991 13.1786 6.82037 13.1786C6.34084 13.1786 5.86716 13.2841 5.43288 13.4874C4.9986 13.6908 4.61433 13.9871 4.30728 14.3555L1.78233 17.402V5.63075C1.78546 4.60994 2.19236 3.63182 2.91419 2.90999C3.63602 2.18816 4.61414 1.78126 5.63495 1.77813H19.86C20.8808 1.78126 21.8589 2.18816 22.5808 2.90999C23.3026 3.63182 23.7095 4.60994 23.7126 5.63075V17.485Z" fill="var(--fill-0, #8A8A8A)"/>
<path id="Vector_2" d="M6.82017 9.18714C8.12955 9.18714 9.19101 8.12568 9.19101 6.8163C9.19101 5.50692 8.12955 4.44546 6.82017 4.44546C5.51079 4.44546 4.44933 5.50692 4.44933 6.8163C4.44933 8.12568 5.51079 9.18714 6.82017 9.18714Z" fill="var(--fill-0, #8A8A8A)"/>
</g>
</svg>
