<svg preserveAspectRatio="none" width="100%" height="100%" overflow="visible" style="display: block;" viewBox="0 0 20.64 24" fill="none" xmlns="http://www.w3.org/2000/svg">
<g id="Group">
<path id="Vector" d="M4.55977 13.6796C4.55977 16.7996 7.07976 19.4396 10.3198 19.4396C11.4983 19.4396 12.6083 19.0971 13.5464 18.464C14.028 18.139 14.0955 17.4553 13.6846 17.0445L10.3198 13.6796V9.05057C10.3198 8.47749 9.80044 8.0344 9.23755 8.14195C6.61279 8.64344 4.55977 10.9282 4.55977 13.6796Z" fill="var(--fill-0, white)"/>
<path id="Vector_2" d="M0 13.68C0 19.32 4.56 24 10.32 24C15.96 24 20.64 19.44 20.64 13.68C20.64 10.92 19.56 8.52 17.88 6.72L18.5484 6.05161C18.9083 5.69174 18.9083 5.10826 18.5484 4.74839L18.1716 4.37161C17.8117 4.01174 17.2283 4.01174 16.8684 4.37161L16.08 5.16C14.76 4.2 13.2 3.6 11.52 3.48V2.28H11.7985C12.3074 2.28 12.72 1.86742 12.72 1.35848V0.921518C12.72 0.412578 12.3074 0 11.7985 0H9.08152C8.57258 0 8.16 0.412578 8.16 0.921518V1.35848C8.16 1.86742 8.57258 2.28 9.08152 2.28H9.36V3.48C4.08 4.08 0 8.4 0 13.68ZM2.28 13.68C2.28 9.24 5.88 5.64 10.32 5.64C14.76 5.64 18.36 9.24 18.36 13.68C18.36 18.12 14.76 21.72 10.32 21.72C5.88 21.72 2.28 18.12 2.28 13.68Z" fill="var(--fill-0, white)"/>
</g>
</svg>
