<svg preserveAspectRatio="none" width="100%" height="100%" overflow="visible" style="display: block;" viewBox="0 0 56 57" fill="none" xmlns="http://www.w3.org/2000/svg">
<g id="Frame 2147227143">
<rect id="Rectangle 439" x="56" width="57" height="56" rx="12" transform="rotate(90 56 0)" fill="var(--fill-0, #4E5269)"/>
<path id="Vector" d="M28.5833 18.2C28.2607 18.2 28 17.9318 28 17.6C28 17.2682 28.2607 17 28.5833 17C34.6948 17 39.6665 22.1144 39.6665 28.4C39.6665 28.5188 39.6636 28.6388 39.659 28.7594L41.0041 27.3758C41.2322 27.1412 41.6009 27.1412 41.8289 27.3758C42.057 27.6104 42.057 27.9896 41.8289 28.2242L39.4956 30.6242C39.2675 30.8588 38.8989 30.8588 38.6708 30.6242L36.3375 28.2242C36.1094 27.9896 36.1094 27.6104 36.3375 27.3758C36.5656 27.1412 36.9342 27.1412 37.1623 27.3758L38.4923 28.7438C38.497 28.628 38.4999 28.5134 38.4999 28.4C38.4999 22.7756 34.0514 18.2 28.5833 18.2ZM30.7457 37.8242L36.579 31.8242C36.8071 31.5896 36.8071 31.2104 36.579 30.9758L26.0791 20.1758C25.851 19.9412 25.4824 19.9412 25.2543 20.1758L19.421 26.1758C19.1929 26.4104 19.1929 26.7896 19.421 27.0242L29.9209 37.8242C30.149 38.0588 30.5176 38.0588 30.7457 37.8242ZM27.4167 41C27.7393 41 28 40.7318 28 40.4C28 40.0682 27.7393 39.8 27.4167 39.8C21.9486 39.8 17.5001 35.2244 17.5001 29.6C17.5001 29.4866 17.503 29.372 17.5077 29.2562L18.8377 30.6242C19.0658 30.8588 19.4344 30.8588 19.6625 30.6242C19.8906 30.3896 19.8906 30.0104 19.6625 29.7758L17.3292 27.3758C17.1011 27.1412 16.7325 27.1412 16.5044 27.3758L14.1711 29.7758C13.943 30.0104 13.943 30.3896 14.1711 30.6242C14.3991 30.8588 14.7678 30.8588 14.9959 30.6242L16.3492 29.2322C16.3445 29.3546 16.3335 29.4824 16.3335 29.6C16.3335 35.8862 21.3052 41 27.4167 41Z" fill="var(--fill-0, white)"/>
</g>
</svg>
