<svg width="89" height="80" viewBox="0 0 89 80" fill="none" xmlns="http://www.w3.org/2000/svg">
<g filter="url(#filter0_d_161_458)">
<rect x="8" y="6" width="73" height="64" rx="12" fill="white" fill-opacity="0.45" shape-rendering="crispEdges"/>
<rect x="8.5" y="6.5" width="72" height="63" rx="11.5" stroke="white" stroke-opacity="0.7" shape-rendering="crispEdges"/>
<path d="M20.8808 55.5955V54.4545H26.2565V55.5955H24.2526V61H22.8847V55.5955H20.8808ZM31.6848 54.4545H33.0686V58.7053C33.0686 59.1825 32.9546 59.6001 32.7267 59.9581C32.5008 60.3161 32.1844 60.5952 31.7774 60.7955C31.3705 60.9936 30.8964 61.0927 30.3552 61.0927C29.8119 61.0927 29.3367 60.9936 28.9298 60.7955C28.5228 60.5952 28.2064 60.3161 27.9806 59.9581C27.7547 59.6001 27.6418 59.1825 27.6418 58.7053V54.4545H29.0257V58.587C29.0257 58.8363 29.08 59.0579 29.1887 59.2518C29.2995 59.4457 29.455 59.598 29.6553 59.7088C29.8556 59.8196 30.0889 59.875 30.3552 59.875C30.6237 59.875 30.857 59.8196 31.0551 59.7088C31.2554 59.598 31.4099 59.4457 31.5186 59.2518C31.6294 59.0579 31.6848 58.8363 31.6848 58.587V54.4545ZM34.4579 55.5955V54.4545H39.8336V55.5955H37.8297V61H36.4618V55.5955H34.4579ZM46.935 57.7273C46.935 58.4411 46.7997 59.0483 46.5291 59.549C46.2607 60.0497 45.8942 60.4322 45.4297 60.6964C44.9673 60.9585 44.4474 61.0895 43.87 61.0895C43.2884 61.0895 42.7663 60.9574 42.304 60.6932C41.8416 60.429 41.4762 60.0465 41.2077 59.5458C40.9393 59.0451 40.805 58.4389 40.805 57.7273C40.805 57.0135 40.9393 56.4062 41.2077 55.9055C41.4762 55.4048 41.8416 55.0234 42.304 54.7614C42.7663 54.4972 43.2884 54.3651 43.87 54.3651C44.4474 54.3651 44.9673 54.4972 45.4297 54.7614C45.8942 55.0234 46.2607 55.4048 46.5291 55.9055C46.7997 56.4062 46.935 57.0135 46.935 57.7273ZM45.532 57.7273C45.532 57.2649 45.4627 56.875 45.3242 56.5575C45.1879 56.2401 44.995 55.9993 44.7457 55.8352C44.4965 55.6712 44.2045 55.5891 43.87 55.5891C43.5355 55.5891 43.2436 55.6712 42.9943 55.8352C42.745 55.9993 42.5511 56.2401 42.4126 56.5575C42.2763 56.875 42.2081 57.2649 42.2081 57.7273C42.2081 58.1896 42.2763 58.5795 42.4126 58.897C42.5511 59.2145 42.745 59.4553 42.9943 59.6193C43.2436 59.7834 43.5355 59.8654 43.87 59.8654C44.2045 59.8654 44.4965 59.7834 44.7457 59.6193C44.995 59.4553 45.1879 59.2145 45.3242 58.897C45.4627 58.5795 45.532 58.1896 45.532 57.7273ZM48.4601 61V54.4545H51.0425C51.5368 54.4545 51.9587 54.543 52.3082 54.7198C52.6597 54.8945 52.9271 55.1428 53.1104 55.4645C53.2957 55.7841 53.3884 56.1602 53.3884 56.5927C53.3884 57.0273 53.2947 57.4013 53.1072 57.7145C52.9197 58.0256 52.648 58.2642 52.2922 58.4304C51.9385 58.5966 51.5102 58.6797 51.0074 58.6797H49.2783V57.5675H50.7837C51.0479 57.5675 51.2673 57.5312 51.442 57.4588C51.6167 57.3864 51.7467 57.2777 51.8319 57.1328C51.9193 56.9879 51.963 56.8079 51.963 56.5927C51.963 56.3754 51.9193 56.1921 51.8319 56.043C51.7467 55.8938 51.6157 55.7809 51.4388 55.7042C51.2641 55.6254 51.0436 55.5859 50.7773 55.5859H49.844V61H48.4601ZM51.9949 58.0213L53.6217 61H52.094L50.5024 58.0213H51.9949ZM56.2503 54.4545V61H54.8664V54.4545H56.2503ZM59.017 61H57.5341L59.7937 54.4545H61.5771L63.8335 61H62.3505L60.7109 55.9503H60.6598L59.017 61ZM58.9244 58.4272H62.4272V59.5075H58.9244V58.4272ZM65.1213 61V54.4545H66.5052V59.859H69.3113V61H65.1213Z" fill="#1A2260" fill-opacity="0.4"/>
<path d="M45.0865 19C37.8698 19 32.0195 24.8503 32.0195 32.067C32.0195 39.2837 37.8698 45.134 45.0865 45.134C52.3032 45.134 58.1535 39.2837 58.1535 32.067C58.1459 24.8535 52.3001 19.0077 45.0865 19ZM50.5896 32.4833C50.4991 32.6648 50.352 32.8119 50.1705 32.9024V32.907L42.7037 36.6405C42.2425 36.8709 41.682 36.6839 41.4515 36.2228C41.386 36.0917 41.3523 35.947 41.3531 35.8005V28.3336C41.3529 27.8181 41.7705 27.4001 42.286 27.3998C42.431 27.3997 42.574 27.4334 42.7037 27.4982L50.1705 31.2317C50.6319 31.4616 50.8195 32.022 50.5896 32.4833Z" fill="#0E184D"/>
</g>
<defs>
<filter id="filter0_d_161_458" x="0" y="0" width="89" height="80" filterUnits="userSpaceOnUse" color-interpolation-filters="sRGB">
<feFlood flood-opacity="0" result="BackgroundImageFix"/>
<feColorMatrix in="SourceAlpha" type="matrix" values="0 0 0 0 0 0 0 0 0 0 0 0 0 0 0 0 0 0 127 0" result="hardAlpha"/>
<feOffset dy="2"/>
<feGaussianBlur stdDeviation="4"/>
<feComposite in2="hardAlpha" operator="out"/>
<feColorMatrix type="matrix" values="0 0 0 0 0.101961 0 0 0 0 0.133333 0 0 0 0 0.376471 0 0 0 0.08 0"/>
<feBlend mode="normal" in2="BackgroundImageFix" result="effect1_dropShadow_161_458"/>
<feBlend mode="normal" in="SourceGraphic" in2="effect1_dropShadow_161_458" result="shape"/>
</filter>
</defs>
</svg>
