<svg width="44" height="50" viewBox="0 0 44 50" fill="none" xmlns="http://www.w3.org/2000/svg">
<path d="M23.0996 37.125H20.8996C19.8365 37.125 18.9746 37.9869 18.9746 39.05V46.2C18.9746 47.2631 19.8365 48.125 20.8996 48.125H23.0996C24.1628 48.125 25.0246 47.2631 25.0246 46.2V39.05C25.0246 37.9869 24.1628 37.125 23.0996 37.125Z" fill="#DDE8FF"/>
<path d="M22.0006 46.8879C22.5322 46.8879 22.9631 46.457 22.9631 45.9254C22.9631 45.3938 22.5322 44.9629 22.0006 44.9629C21.469 44.9629 21.0381 45.3938 21.0381 45.9254C21.0381 46.457 21.469 46.8879 22.0006 46.8879Z" fill="#B8D0FF"/>
<path d="M8.25033 24.75C7.79199 17.4167 8.70866 12.375 11.0003 9.625C12.8337 7.79167 15.1253 6.875 17.8753 6.875V12.375C16.042 12.375 14.667 13.0625 13.7503 14.4375C12.6503 16.2708 12.192 19.0208 12.3753 22.6875H31.6253C31.8087 19.0208 31.3503 16.2708 30.2503 14.4375C29.3337 13.0625 27.9587 12.375 26.1253 12.375V6.875C28.8753 6.875 31.167 7.79167 33.0003 9.625C35.292 12.375 36.2087 17.4167 35.7503 24.75C35.292 29.3333 30.7087 32.0833 22.0003 33C13.292 32.0833 8.70866 29.3333 8.25033 24.75Z" fill="#C5DAFF"/>
<path d="M13.0625 23.375C13.2458 19.7083 13.9333 17.1875 15.125 15.8125C16.3167 14.6208 17.9208 13.9333 19.9375 13.75V17.1875C18.7458 17.3708 17.8292 17.9667 17.1875 18.975C16.5458 20.075 16.1792 21.5417 16.0875 23.375H27.9125C27.8208 21.5417 27.4542 20.075 26.8125 18.975C26.1708 17.9667 25.2542 17.3708 24.0625 17.1875V13.75C26.0792 13.9333 27.6833 14.6208 28.875 15.8125C30.0667 17.1875 30.7542 19.7083 30.9375 23.375C30.4792 27.0417 27.5 29.1042 22 29.5625C16.5 29.1042 13.5208 27.0417 13.0625 23.375Z" fill="#E8F0FF"/>
<path d="M17.3252 20.3506H16.5002C16.1964 20.3506 15.9502 20.5968 15.9502 20.9006V22.2756C15.9502 22.5793 16.1964 22.8256 16.5002 22.8256H17.3252C17.629 22.8256 17.8752 22.5793 17.8752 22.2756V20.9006C17.8752 20.5968 17.629 20.3506 17.3252 20.3506Z" fill="#C5DAFF"/>
<path d="M19.7998 19.6621H18.9748C18.671 19.6621 18.4248 19.9084 18.4248 20.2121V22.1371C18.4248 22.4409 18.671 22.6871 18.9748 22.6871H19.7998C20.1036 22.6871 20.3498 22.4409 20.3498 22.1371V20.2121C20.3498 19.9084 20.1036 19.6621 19.7998 19.6621Z" fill="#C5DAFF"/>
<path d="M22.2756 19.6621H21.7256C21.3459 19.6621 21.0381 19.9344 21.0381 20.2703V22.2164C21.0381 22.5523 21.3459 22.8246 21.7256 22.8246H22.2756C22.6553 22.8246 22.9631 22.5523 22.9631 22.2164V20.2703C22.9631 19.9344 22.6553 19.6621 22.2756 19.6621Z" fill="#C5DAFF"/>
<path d="M25.0254 19.6621H24.2004C23.8966 19.6621 23.6504 19.9084 23.6504 20.2121V22.1371C23.6504 22.4409 23.8966 22.6871 24.2004 22.6871H25.0254C25.3291 22.6871 25.5754 22.4409 25.5754 22.1371V20.2121C25.5754 19.9084 25.3291 19.6621 25.0254 19.6621Z" fill="#C5DAFF"/>
<path d="M27.5 20.3506H26.675C26.3712 20.3506 26.125 20.5968 26.125 20.9006V22.2756C26.125 22.5793 26.3712 22.8256 26.675 22.8256H27.5C27.8038 22.8256 28.05 22.5793 28.05 22.2756V20.9006C28.05 20.5968 27.8038 20.3506 27.5 20.3506Z" fill="#C5DAFF"/>
<path d="M8.25 24.7506C7.79167 22.4589 7.7 20.3964 7.975 18.5631C8.34167 16.7298 9.12083 15.4923 10.3125 14.8506L12.375 17.1881C11.6417 17.6464 11.1833 18.7006 11 20.3506C10.8167 21.9089 10.9083 23.7423 11.275 25.8506L8.25 24.7506Z" fill="#B8D0FF"/>
<path d="M35.75 24.7506C36.2083 22.4589 36.3 20.3964 36.025 18.5631C35.6583 16.7298 34.8792 15.4923 33.6875 14.8506L31.625 17.1881C32.3583 17.6464 32.8167 18.7006 33 20.3506C33.1833 21.9089 33.0917 23.7423 32.725 25.8506L35.75 24.7506Z" fill="#B8D0FF"/>
<path d="M22.8256 33H21.1756C20.72 33 20.3506 33.3694 20.3506 33.825V36.9875C20.3506 37.4431 20.72 37.8125 21.1756 37.8125H22.8256C23.2812 37.8125 23.6506 37.4431 23.6506 36.9875V33.825C23.6506 33.3694 23.2812 33 22.8256 33Z" fill="#B8D0FF"/>
<path d="M37 7.20898L41.8058 2.40316M41.8058 5.4068L41.8058 2.40316L38.8022 2.40316" stroke="#C5DAFF" stroke-linecap="round" stroke-linejoin="round"/>
</svg>
