<svg preserveAspectRatio="none" width="100%" height="100%" overflow="visible" style="display: block;" viewBox="0 0 44 49.5" fill="none" xmlns="http://www.w3.org/2000/svg">
<g id="dental-tray 1">
<path id="Vector" d="M23.0996 37.125H20.8996C19.8365 37.125 18.9746 37.9869 18.9746 39.05V46.2C18.9746 47.2631 19.8365 48.125 20.8996 48.125H23.0996C24.1628 48.125 25.0246 47.2631 25.0246 46.2V39.05C25.0246 37.9869 24.1628 37.125 23.0996 37.125Z" fill="var(--fill-0, #DDE8FF)"/>
<path id="Vector_2" d="M22.0006 46.8879C22.5322 46.8879 22.9631 46.457 22.9631 45.9254C22.9631 45.3938 22.5322 44.9629 22.0006 44.9629C21.469 44.9629 21.0381 45.3938 21.0381 45.9254C21.0381 46.457 21.469 46.8879 22.0006 46.8879Z" fill="var(--fill-0, #B8D0FF)"/>
<path id="Vector_3" d="M8.25023 24.7501C7.79189 17.4167 8.70856 12.3751 11.0002 9.62505C12.8336 7.79172 15.1252 6.87505 17.8752 6.87505V12.3751C16.0419 12.3751 14.6669 13.0626 13.7502 14.4376C12.6502 16.2709 12.1919 19.0209 12.3752 22.6876H31.6252C31.8086 19.0209 31.3502 16.2709 30.2502 14.4376C29.3336 13.0626 27.9586 12.3751 26.1252 12.3751V6.87505C28.8752 6.87505 31.1669 7.79172 33.0002 9.62505C35.2919 12.3751 36.2086 17.4167 35.7502 24.7501C35.2919 29.3334 30.7086 32.0834 22.0002 33.0001C13.2919 32.0834 8.70856 29.3334 8.25023 24.7501Z" fill="var(--fill-0, #C5DAFF)"/>
<path id="Vector_4" d="M13.0626 23.3751C13.2459 19.7084 13.9334 17.1876 15.1251 15.8126C16.3167 14.6209 17.9209 13.9334 19.9376 13.7501V17.1876C18.7459 17.3709 17.8292 17.9668 17.1876 18.9751C16.5459 20.0751 16.1792 21.5418 16.0876 23.3751H27.9126C27.8209 21.5418 27.4542 20.0751 26.8126 18.9751C26.1709 17.9668 25.2542 17.3709 24.0626 17.1876V13.7501C26.0792 13.9334 27.6834 14.6209 28.8751 15.8126C30.0667 17.1876 30.7542 19.7084 30.9375 23.3751C30.4792 27.0418 27.5001 29.1043 22.0001 29.5626C16.5001 29.1043 13.5209 27.0418 13.0626 23.3751Z" fill="var(--fill-0, #E8F0FF)"/>
<path id="Vector_5" d="M17.3252 20.3506H16.5002C16.1964 20.3506 15.9502 20.5968 15.9502 20.9006V22.2756C15.9502 22.5793 16.1964 22.8256 16.5002 22.8256H17.3252C17.629 22.8256 17.8752 22.5793 17.8752 22.2756V20.9006C17.8752 20.5968 17.629 20.3506 17.3252 20.3506Z" fill="var(--fill-0, #C5DAFF)"/>
<path id="Vector_6" d="M19.7998 19.6621H18.9748C18.671 19.6621 18.4248 19.9084 18.4248 20.2121V22.1371C18.4248 22.4409 18.671 22.6871 18.9748 22.6871H19.7998C20.1036 22.6871 20.3498 22.4409 20.3498 22.1371V20.2121C20.3498 19.9084 20.1036 19.6621 19.7998 19.6621Z" fill="var(--fill-0, #C5DAFF)"/>
<path id="Vector_7" d="M22.2756 19.6621H21.7256C21.3459 19.6621 21.0381 19.9344 21.0381 20.2703V22.2164C21.0381 22.5523 21.3459 22.8246 21.7256 22.8246H22.2756C22.6553 22.8246 22.9631 22.5523 22.9631 22.2164V20.2703C22.9631 19.9344 22.6553 19.6621 22.2756 19.6621Z" fill="var(--fill-0, #C5DAFF)"/>
<path id="Vector_8" d="M25.0254 19.6621H24.2004C23.8966 19.6621 23.6504 19.9084 23.6504 20.2121V22.1371C23.6504 22.4409 23.8966 22.6871 24.2004 22.6871H25.0254C25.3291 22.6871 25.5754 22.4409 25.5754 22.1371V20.2121C25.5754 19.9084 25.3291 19.6621 25.0254 19.6621Z" fill="var(--fill-0, #C5DAFF)"/>
<path id="Vector_9" d="M27.5 20.3506H26.675C26.3712 20.3506 26.125 20.5968 26.125 20.9006V22.2756C26.125 22.5793 26.3712 22.8256 26.675 22.8256H27.5C27.8038 22.8256 28.05 22.5793 28.05 22.2756V20.9006C28.05 20.5968 27.8038 20.3506 27.5 20.3506Z" fill="var(--fill-0, #C5DAFF)"/>
<path id="Vector_10" d="M8.25 24.7506C7.79167 22.4589 7.7 20.3964 7.975 18.5631C8.34167 16.7298 9.12083 15.4923 10.3125 14.8506L12.375 17.1881C11.6417 17.6464 11.1833 18.7006 11 20.3506C10.8167 21.9089 10.9083 23.7423 11.275 25.8506L8.25 24.7506Z" fill="var(--fill-0, #B8D0FF)"/>
<path id="Vector_11" d="M35.75 24.7506C36.2083 22.4589 36.3 20.3964 36.025 18.5631C35.6583 16.7298 34.8792 15.4923 33.6875 14.8506L31.625 17.1881C32.3583 17.6464 32.8167 18.7006 33 20.3506C33.1833 21.9089 33.0917 23.7423 32.725 25.8506L35.75 24.7506Z" fill="var(--fill-0, #B8D0FF)"/>
<path id="Vector_12" d="M22.8256 33H21.1756C20.72 33 20.3506 33.3694 20.3506 33.825V36.9875C20.3506 37.4431 20.72 37.8125 21.1756 37.8125H22.8256C23.2812 37.8125 23.6506 37.4431 23.6506 36.9875V33.825C23.6506 33.3694 23.2812 33 22.8256 33Z" fill="var(--fill-0, #B8D0FF)"/>
<path id="Vector_13" d="M37 7.20898L41.8058 2.40316M41.8058 5.4068L41.8058 2.40316L38.8022 2.40316" stroke="var(--stroke-0, #C5DAFF)" stroke-linecap="round" stroke-linejoin="round"/>
</g>
</svg>
