<svg preserveAspectRatio="none" width="100%" height="100%" overflow="visible" style="display: block;" viewBox="0 0 88.8889 100" fill="none" xmlns="http://www.w3.org/2000/svg">
<g id="dental-tray 2">
<path id="Vector" d="M46.6656 75H42.2212C40.0734 75 38.3323 76.7411 38.3323 78.8889V93.3333C38.3323 95.4811 40.0734 97.2222 42.2212 97.2222H46.6656C48.8134 97.2222 50.5545 95.4811 50.5545 93.3333V78.8889C50.5545 76.7411 48.8134 75 46.6656 75Z" fill="var(--fill-0, #DDE8FF)"/>
<path id="Vector_2" d="M44.4457 94.7233C45.5196 94.7233 46.3902 93.8527 46.3902 92.7788C46.3902 91.705 45.5196 90.8344 44.4457 90.8344C43.3718 90.8344 42.5013 91.705 42.5013 92.7788C42.5013 93.8527 43.3718 94.7233 44.4457 94.7233Z" fill="var(--fill-0, #B8D0FF)"/>
<path id="Vector_3" d="M16.6666 50.0004C15.7407 35.1856 17.5925 25.0004 22.2222 19.4449C25.9259 15.7412 30.5555 13.8893 36.111 13.8893V25.0004C32.4073 25.0004 29.6296 26.3893 27.7777 29.1671C25.5555 32.8708 24.6296 38.4264 24.9999 45.8338H63.8888C64.2592 38.4264 63.3333 32.8708 61.1111 29.1671C59.2592 26.3893 56.4814 25.0004 52.7777 25.0004V13.8893C58.3333 13.8893 62.9629 15.7412 66.6666 19.4449C71.2962 25.0004 73.1481 35.1856 72.2222 50.0004C71.2962 59.2597 62.037 64.8153 44.4444 66.6671C26.8518 64.8153 17.5925 59.2597 16.6666 50.0004Z" fill="var(--fill-0, #C5DAFF)"/>
<path id="Vector_4" d="M26.389 47.2221C26.7594 39.8147 28.1483 34.7221 30.5557 31.9443C32.9631 29.5369 36.2038 28.148 40.2779 27.7777V34.7221C37.8705 35.0925 36.0186 36.2962 34.7223 38.3332C33.426 40.5554 32.6853 43.5184 32.5001 47.2221H56.389C56.2038 43.5184 55.4631 40.5554 54.1668 38.3332C52.8705 36.2962 51.0186 35.0925 48.6112 34.7221V27.7777C52.6853 28.148 55.926 29.5369 58.3335 31.9443C60.7409 34.7221 62.1297 39.8147 62.5001 47.2221C61.5742 54.6295 55.5557 58.7962 44.4446 59.7221C33.3335 58.7962 27.3149 54.6295 26.389 47.2221Z" fill="var(--fill-0, #E8F0FF)"/>
<path id="Vector_5" d="M35 41.1123H33.3333C32.7197 41.1123 32.2222 41.6097 32.2222 42.2234V45.0012C32.2222 45.6148 32.7197 46.1123 33.3333 46.1123H35C35.6136 46.1123 36.1111 45.6148 36.1111 45.0012V42.2234C36.1111 41.6097 35.6136 41.1123 35 41.1123Z" fill="var(--fill-0, #C5DAFF)"/>
<path id="Vector_6" d="M39.9996 39.7219H38.3329C37.7193 39.7219 37.2218 40.2194 37.2218 40.833V44.7219C37.2218 45.3356 37.7193 45.833 38.3329 45.833H39.9996C40.6132 45.833 41.1107 45.3356 41.1107 44.7219V40.833C41.1107 40.2194 40.6132 39.7219 39.9996 39.7219Z" fill="var(--fill-0, #C5DAFF)"/>
<path id="Vector_7" d="M45.0013 39.7219H43.8902C43.1231 39.7219 42.5013 40.272 42.5013 40.9506V44.8822C42.5013 45.5607 43.1231 46.1108 43.8902 46.1108H45.0013C45.7683 46.1108 46.3902 45.5607 46.3902 44.8822V40.9506C46.3902 40.272 45.7683 39.7219 45.0013 39.7219Z" fill="var(--fill-0, #C5DAFF)"/>
<path id="Vector_8" d="M50.5555 39.7219H48.8889C48.2752 39.7219 47.7777 40.2194 47.7777 40.833V44.7219C47.7777 45.3356 48.2752 45.833 48.8889 45.833H50.5555C51.1692 45.833 51.6666 45.3356 51.6666 44.7219V40.833C51.6666 40.2194 51.1692 39.7219 50.5555 39.7219Z" fill="var(--fill-0, #C5DAFF)"/>
<path id="Vector_9" d="M55.5551 41.1123H53.8885C53.2748 41.1123 52.7773 41.6097 52.7773 42.2234V45.0012C52.7773 45.6148 53.2748 46.1123 53.8885 46.1123H55.5551C56.1688 46.1123 56.6662 45.6148 56.6662 45.0012V42.2234C56.6662 41.6097 56.1688 41.1123 55.5551 41.1123Z" fill="var(--fill-0, #C5DAFF)"/>
<path id="Vector_10" d="M16.6659 50.0016C15.74 45.372 15.5548 41.2053 16.1103 37.5016C16.8511 33.7979 18.4252 31.2979 20.8326 30.0016L24.9992 34.7238C23.5177 35.6498 22.5918 37.7794 22.2214 41.1127C21.8511 44.2609 22.0363 47.9646 22.777 52.2238L16.6659 50.0016Z" fill="var(--fill-0, #B8D0FF)"/>
<path id="Vector_11" d="M72.2223 50.0016C73.1483 45.372 73.3335 41.2053 72.7779 37.5016C72.0372 33.7979 70.4631 31.2979 68.0557 30.0016L63.889 34.7238C65.3705 35.6498 66.2964 37.7794 66.6668 41.1127C67.0372 44.2609 66.852 47.9646 66.1112 52.2238L72.2223 50.0016Z" fill="var(--fill-0, #B8D0FF)"/>
<path id="Vector_12" d="M46.1119 66.667H42.7786C41.8581 66.667 41.1119 67.4132 41.1119 68.3337V74.7226C41.1119 75.643 41.8581 76.3892 42.7786 76.3892H46.1119C47.0324 76.3892 47.7786 75.643 47.7786 74.7226V68.3337C47.7786 67.4132 47.0324 66.667 46.1119 66.667Z" fill="var(--fill-0, #B8D0FF)"/>
<path id="Vector_13" d="M74.747 14.5639L84.4557 4.85513M84.4557 10.9231L84.4557 4.85513L78.3878 4.85513" stroke="var(--stroke-0, #C5DAFF)" stroke-width="2.0202" stroke-linecap="round" stroke-linejoin="round"/>
</g>
</svg>
