<svg preserveAspectRatio="none" width="100%" height="100%" overflow="visible" style="display: block;" viewBox="0 0 44 49.5" fill="none" xmlns="http://www.w3.org/2000/svg">
<g id="dental-tray 1">
<path id="Vector" d="M23.1 37.125H20.9C19.8369 37.125 18.975 37.9869 18.975 39.05V46.2C18.975 47.2631 19.8369 48.125 20.9 48.125H23.1C24.1632 48.125 25.025 47.2631 25.025 46.2V39.05C25.025 37.9869 24.1632 37.125 23.1 37.125Z" fill="var(--fill-0, #DDE8FF)"/>
<path id="Vector_2" d="M22.0002 46.8876C22.5318 46.8876 22.9627 46.4567 22.9627 45.9251C22.9627 45.3935 22.5318 44.9626 22.0002 44.9626C21.4686 44.9626 21.0377 45.3935 21.0377 45.9251C21.0377 46.4567 21.4686 46.8876 22.0002 46.8876Z" fill="var(--fill-0, #B8D0FF)"/>
<path id="Vector_3" d="M8.25023 24.7501C7.79189 17.4167 8.70856 12.3751 11.0002 9.62505C12.8336 7.79172 15.1252 6.87505 17.8752 6.87505V12.3751C16.0419 12.3751 14.6669 13.0626 13.7502 14.4376C12.6502 16.2709 12.1919 19.0209 12.3752 22.6876H31.6252C31.8086 19.0209 31.3502 16.2709 30.2502 14.4376C29.3336 13.0626 27.9586 12.3751 26.1252 12.3751V6.87505C28.8752 6.87505 31.1669 7.79172 33.0002 9.62505C35.2919 12.3751 36.2086 17.4167 35.7502 24.7501C35.2919 29.3334 30.7086 32.0834 22.0002 33.0001C13.2919 32.0834 8.70856 29.3334 8.25023 24.7501Z" fill="var(--fill-0, #C5DAFF)"/>
<path id="Vector_4" d="M13.0626 23.3751C13.2459 19.7084 13.9334 17.1876 15.1251 15.8126C16.3167 14.6209 17.9209 13.9334 19.9376 13.7501V17.1876C18.7459 17.3709 17.8292 17.9668 17.1876 18.9751C16.5459 20.0751 16.1792 21.5418 16.0876 23.3751H27.9126C27.8209 21.5418 27.4542 20.0751 26.8126 18.9751C26.1709 17.9668 25.2542 17.3709 24.0626 17.1876V13.7501C26.0792 13.9334 27.6834 14.6209 28.8751 15.8126C30.0667 17.1876 30.7542 19.7084 30.9375 23.3751C30.4792 27.0418 27.5001 29.1043 22.0001 29.5626C16.5001 29.1043 13.5209 27.0418 13.0626 23.3751Z" fill="var(--fill-0, #E8F0FF)"/>
<path id="Vector_5" d="M17.3248 20.3501H16.4998C16.196 20.3501 15.9498 20.5964 15.9498 20.9001V22.2751C15.9498 22.5789 16.196 22.8251 16.4998 22.8251H17.3248C17.6286 22.8251 17.8748 22.5789 17.8748 22.2751V20.9001C17.8748 20.5964 17.6286 20.3501 17.3248 20.3501Z" fill="var(--fill-0, #C5DAFF)"/>
<path id="Vector_6" d="M19.8 19.6626H18.975C18.6712 19.6626 18.425 19.9088 18.425 20.2126V22.1376C18.425 22.4413 18.6712 22.6876 18.975 22.6876H19.8C20.1037 22.6876 20.35 22.4413 20.35 22.1376V20.2126C20.35 19.9088 20.1037 19.6626 19.8 19.6626Z" fill="var(--fill-0, #C5DAFF)"/>
<path id="Vector_7" d="M22.2752 19.6626H21.7252C21.3455 19.6626 21.0377 19.9349 21.0377 20.2708V22.2169C21.0377 22.5528 21.3455 22.8251 21.7252 22.8251H22.2752C22.6549 22.8251 22.9627 22.5528 22.9627 22.2169V20.2708C22.9627 19.9349 22.6549 19.6626 22.2752 19.6626Z" fill="var(--fill-0, #C5DAFF)"/>
<path id="Vector_8" d="M25.0249 19.6626H24.1999C23.8962 19.6626 23.6499 19.9088 23.6499 20.2126V22.1376C23.6499 22.4413 23.8962 22.6876 24.1999 22.6876H25.0249C25.3287 22.6876 25.5749 22.4413 25.5749 22.1376V20.2126C25.5749 19.9088 25.3287 19.6626 25.0249 19.6626Z" fill="var(--fill-0, #C5DAFF)"/>
<path id="Vector_9" d="M27.5001 20.3501H26.6751C26.3713 20.3501 26.1251 20.5964 26.1251 20.9001V22.2751C26.1251 22.5789 26.3713 22.8251 26.6751 22.8251H27.5001C27.8039 22.8251 28.0501 22.5789 28.0501 22.2751V20.9001C28.0501 20.5964 27.8039 20.3501 27.5001 20.3501Z" fill="var(--fill-0, #C5DAFF)"/>
<path id="Vector_10" d="M8.24995 24.7502C7.79161 22.4585 7.69995 20.396 7.97495 18.5627C8.34161 16.7294 9.12078 15.4919 10.3124 14.8502L12.3749 17.1877C11.6416 17.646 11.1833 18.7002 10.9999 20.3502C10.8166 21.9085 10.9083 23.7419 11.2749 25.8502L8.24995 24.7502Z" fill="var(--fill-0, #B8D0FF)"/>
<path id="Vector_11" d="M35.7501 24.7502C36.2084 22.4585 36.3001 20.396 36.0251 18.5627C35.6584 16.7294 34.8792 15.4919 33.6876 14.8502L31.6251 17.1877C32.3584 17.646 32.8167 18.7002 33.0001 20.3502C33.1834 21.9085 33.0917 23.7419 32.7251 25.8502L35.7501 24.7502Z" fill="var(--fill-0, #B8D0FF)"/>
<path id="Vector_12" d="M22.8251 33.0002H21.1751C20.7195 33.0002 20.3501 33.3695 20.3501 33.8252V36.9877C20.3501 37.4433 20.7195 37.8127 21.1751 37.8127H22.8251C23.2808 37.8127 23.6501 37.4433 23.6501 36.9877V33.8252C23.6501 33.3695 23.2808 33.0002 22.8251 33.0002Z" fill="var(--fill-0, #B8D0FF)"/>
<path id="Vector_13" d="M37 7.20898L41.8058 2.40316M41.8058 5.4068L41.8058 2.40316L38.8022 2.40316" stroke="var(--stroke-0, #C5DAFF)" stroke-linecap="round" stroke-linejoin="round"/>
</g>
</svg>
