<svg width="44" height="50" viewBox="0 0 44 50" fill="none" xmlns="http://www.w3.org/2000/svg">
<path d="M20.9004 37.125H23.1004C24.1635 37.125 25.0254 37.9869 25.0254 39.05V46.2C25.0254 47.2631 24.1635 48.125 23.1004 48.125H20.9004C19.8372 48.125 18.9754 47.2631 18.9754 46.2V39.05C18.9754 37.9869 19.8372 37.125 20.9004 37.125Z" fill="#DDE8FF"/>
<path d="M21.9994 46.8879C21.4678 46.8879 21.0369 46.457 21.0369 45.9254C21.0369 45.3938 21.4678 44.9629 21.9994 44.9629C22.531 44.9629 22.9619 45.3938 22.9619 45.9254C22.9619 46.457 22.531 46.8879 21.9994 46.8879Z" fill="#B8D0FF"/>
<path d="M35.7497 24.75C36.208 17.4167 35.2913 12.375 32.9997 9.625C31.1663 7.79167 28.8747 6.875 26.1247 6.875V12.375C27.958 12.375 29.333 13.0625 30.2497 14.4375C31.3497 16.2708 31.808 19.0208 31.6247 22.6875H12.3747C12.1913 19.0208 12.6497 16.2708 13.7497 14.4375C14.6663 13.0625 16.0413 12.375 17.8747 12.375V6.875C15.1247 6.875 12.833 7.79167 10.9997 9.625C8.70801 12.375 7.79134 17.4167 8.24968 24.75C8.70801 29.3333 13.2913 32.0833 21.9997 33C30.708 32.0833 35.2913 29.3333 35.7497 24.75Z" fill="#C5DAFF"/>
<path d="M30.9375 23.375C30.7542 19.7083 30.0667 17.1875 28.875 15.8125C27.6833 14.6208 26.0792 13.9333 24.0625 13.75V17.1875C25.2542 17.3708 26.1708 17.9667 26.8125 18.975C27.4542 20.075 27.8208 21.5417 27.9125 23.375H16.0875C16.1792 21.5417 16.5458 20.075 17.1875 18.975C17.8292 17.9667 18.7458 17.3708 19.9375 17.1875V13.75C17.9208 13.9333 16.3167 14.6208 15.125 15.8125C13.9333 17.1875 13.2458 19.7083 13.0625 23.375C13.5208 27.0417 16.5 29.1042 22 29.5625C27.5 29.1042 30.4792 27.0417 30.9375 23.375Z" fill="#E8F0FF"/>
<path d="M26.6748 20.3506H27.4998C27.8036 20.3506 28.0498 20.5968 28.0498 20.9006V22.2756C28.0498 22.5793 27.8036 22.8256 27.4998 22.8256H26.6748C26.371 22.8256 26.1248 22.5793 26.1248 22.2756V20.9006C26.1248 20.5968 26.371 20.3506 26.6748 20.3506Z" fill="#C5DAFF"/>
<path d="M24.2002 19.6621H25.0252C25.329 19.6621 25.5752 19.9084 25.5752 20.2121V22.1371C25.5752 22.4409 25.329 22.6871 25.0252 22.6871H24.2002C23.8964 22.6871 23.6502 22.4409 23.6502 22.1371V20.2121C23.6502 19.9084 23.8964 19.6621 24.2002 19.6621Z" fill="#C5DAFF"/>
<path d="M21.7244 19.6621H22.2744C22.6541 19.6621 22.9619 19.9344 22.9619 20.2703V22.2164C22.9619 22.5523 22.6541 22.8246 22.2744 22.8246H21.7244C21.3447 22.8246 21.0369 22.5523 21.0369 22.2164V20.2703C21.0369 19.9344 21.3447 19.6621 21.7244 19.6621Z" fill="#C5DAFF"/>
<path d="M18.9746 19.6621H19.7996C20.1034 19.6621 20.3496 19.9084 20.3496 20.2121V22.1371C20.3496 22.4409 20.1034 22.6871 19.7996 22.6871H18.9746C18.6709 22.6871 18.4246 22.4409 18.4246 22.1371V20.2121C18.4246 19.9084 18.6709 19.6621 18.9746 19.6621Z" fill="#C5DAFF"/>
<path d="M16.5 20.3506H17.325C17.6288 20.3506 17.875 20.5968 17.875 20.9006V22.2756C17.875 22.5793 17.6288 22.8256 17.325 22.8256H16.5C16.1962 22.8256 15.95 22.5793 15.95 22.2756V20.9006C15.95 20.5968 16.1962 20.3506 16.5 20.3506Z" fill="#C5DAFF"/>
<path d="M35.75 24.7506C36.2083 22.4589 36.3 20.3964 36.025 18.5631C35.6583 16.7298 34.8792 15.4923 33.6875 14.8506L31.625 17.1881C32.3583 17.6464 32.8167 18.7006 33 20.3506C33.1833 21.9089 33.0917 23.7423 32.725 25.8506L35.75 24.7506Z" fill="#B8D0FF"/>
<path d="M8.25 24.7506C7.79167 22.4589 7.7 20.3964 7.975 18.5631C8.34167 16.7298 9.12083 15.4923 10.3125 14.8506L12.375 17.1881C11.6417 17.6464 11.1833 18.7006 11 20.3506C10.8167 21.9089 10.9083 23.7423 11.275 25.8506L8.25 24.7506Z" fill="#B8D0FF"/>
<path d="M21.1744 33H22.8244C23.28 33 23.6494 33.3694 23.6494 33.825V36.9875C23.6494 37.4431 23.28 37.8125 22.8244 37.8125H21.1744C20.7188 37.8125 20.3494 37.4431 20.3494 36.9875V33.825C20.3494 33.3694 20.7188 33 21.1744 33Z" fill="#B8D0FF"/>
<path d="M7 7.20898L2.19417 2.40316M2.19417 5.4068L2.19417 2.40316L5.19782 2.40316" stroke="#C5DAFF" stroke-linecap="round" stroke-linejoin="round"/>
</svg>
