<svg width="56" height="56" viewBox="0 0 56 56" fill="none" xmlns="http://www.w3.org/2000/svg">
<rect width="56" height="56" rx="28" fill="white"/>
<path fill-rule="evenodd" clip-rule="evenodd" d="M27.7068 21.2928C27.5193 21.1053 27.265 21 26.9998 21C26.7346 21 26.4803 21.1053 26.2928 21.2928L20.2928 27.2928C20.1053 27.4803 20 27.7346 20 27.9998C20 28.265 20.1053 28.5193 20.2928 28.7068L26.2928 34.7068C26.4814 34.8889 26.734 34.9897 26.9962 34.9875C27.2584 34.9852 27.5092 34.88 27.6946 34.6946C27.88 34.5092 27.9852 34.2584 27.9875 33.9962C27.9897 33.734 27.8889 33.4814 27.7068 33.2928L23.4138 28.9998H34.9998C35.265 28.9998 35.5194 28.8944 35.7069 28.7069C35.8944 28.5194 35.9998 28.265 35.9998 27.9998C35.9998 27.7346 35.8944 27.4802 35.7069 27.2927C35.5194 27.1051 35.265 26.9998 34.9998 26.9998H23.4138L27.7068 22.7068C27.8943 22.5193 27.9996 22.265 27.9996 21.9998C27.9996 21.7346 27.8943 21.4803 27.7068 21.2928Z" fill="black"/>
</svg>
