<svg preserveAspectRatio="none" width="100%" height="100%" overflow="visible" style="display: block;" viewBox="0 0 20 20" fill="none" xmlns="http://www.w3.org/2000/svg">
<g id="heroicons-solid:arrow-up">
<path id="Vector" fill-rule="evenodd" clip-rule="evenodd" d="M4.29279 9.70679C4.10532 9.51926 4 9.26495 4 8.99979C4 8.73462 4.10532 8.48031 4.29279 8.29279L10.2928 2.29279C10.4803 2.10532 10.7346 2 10.9998 2C11.265 2 11.5193 2.10532 11.7068 2.29279L17.7068 8.29279C17.8889 8.48139 17.9897 8.73399 17.9875 8.99619C17.9852 9.25838 17.88 9.5092 17.6946 9.6946C17.5092 9.88001 17.2584 9.98518 16.9962 9.98746C16.734 9.98974 16.4814 9.88894 16.2928 9.70679L11.9998 5.41379V16.9998C11.9998 17.265 11.8944 17.5194 11.7069 17.7069C11.5194 17.8944 11.265 17.9998 10.9998 17.9998C10.7346 17.9998 10.4802 17.8944 10.2927 17.7069C10.1051 17.5194 9.99979 17.265 9.99979 16.9998V5.41379L5.70679 9.70679C5.51926 9.89426 5.26495 9.99957 4.99979 9.99957C4.73462 9.99957 4.48031 9.89426 4.29279 9.70679Z" fill="var(--fill-0, black)"/>
</g>
</svg>
