<svg width="94" height="56" viewBox="0 0 94 56" fill="none" xmlns="http://www.w3.org/2000/svg">
<rect width="94" height="56" rx="28" fill="white"/>
<path d="M27.788 22.8182V33H25.9286L21.4989 26.5916H21.4244V33H19.2717V22.8182H21.1609L25.5558 29.2216H25.6452V22.8182H27.788ZM29.5666 33V22.8182H36.4274V24.593H31.7193V27.0192H36.0744V28.794H31.7193V31.2251H36.4473V33H29.5666ZM40.1573 22.8182L42.2106 26.2884H42.2901L44.3533 22.8182H46.7844L43.6772 27.9091L46.854 33H44.3782L42.2901 29.5249H42.2106L40.1225 33H37.6566L40.8434 27.9091L37.7163 22.8182H40.1573ZM47.7589 24.593V22.8182H56.1211V24.593H53.0039V33H50.8761V24.593H47.7589Z" fill="#0E184D"/>
<path fill-rule="evenodd" clip-rule="evenodd" d="M70.2932 21.2928C70.4807 21.1053 70.735 21 71.0002 21C71.2654 21 71.5197 21.1053 71.7072 21.2928L77.7072 27.2928C77.8947 27.4803 78 27.7346 78 27.9998C78 28.265 77.8947 28.5193 77.7072 28.7068L71.7072 34.7068C71.5186 34.8889 71.266 34.9897 71.0038 34.9875C70.7416 34.9852 70.4908 34.88 70.3054 34.6946C70.12 34.5092 70.0148 34.2584 70.0125 33.9962C70.0103 33.734 70.1111 33.4814 70.2932 33.2928L74.5862 28.9998H63.0002C62.735 28.9998 62.4806 28.8944 62.2931 28.7069C62.1056 28.5194 62.0002 28.265 62.0002 27.9998C62.0002 27.7346 62.1056 27.4802 62.2931 27.2927C62.4806 27.1051 62.735 26.9998 63.0002 26.9998H74.5862L70.2932 22.7068C70.1057 22.5193 70.0004 22.265 70.0004 21.9998C70.0004 21.7346 70.1057 21.4803 70.2932 21.2928Z" fill="black"/>
</svg>
