<svg preserveAspectRatio="none" width="100%" height="100%" overflow="visible" style="display: block;" viewBox="0 0 13 30" fill="none" xmlns="http://www.w3.org/2000/svg">
<g id="SVG" clip-path="url(#clip0_0_18)">
<path id="Vector" opacity="0.7" d="M6.75 18H6.25C4.59315 18 3.25 19.3431 3.25 21V27C3.25 28.6569 4.59315 30 6.25 30H6.75C8.40685 30 9.75 28.6569 9.75 27V21C9.75 19.3431 8.40685 18 6.75 18Z" fill="var(--fill-0, #DCE4F0)"/>
<path id="Vector_2" d="M7 0H6C2.68629 0 0 2.68629 0 6V12C0 15.3137 2.68629 18 6 18H7C10.3137 18 13 15.3137 13 12V6C13 2.68629 10.3137 0 7 0Z" fill="var(--fill-0, #E8EEF6)" stroke="var(--stroke-0, #C8D4E4)" stroke-width="1.5"/>
</g>
<defs>
<clipPath id="clip0_0_18">
<rect width="13" height="30" fill="white"/>
</clipPath>
</defs>
</svg>
